<svg xmlns="http://www.w3.org/2000/svg" version="1.1" xmlns:xlink="http://www.w3.org/1999/xlink" xmlns:svgjs="http://svgjs.dev/svgjs" width="1500" height="1500" viewBox="0 0 1500 1500"><rect width="1500" height="1500" fill="#ffffff"></rect><g transform="matrix(0.6666666666666666,0,0,0.6666666666666666,249.39393939393938,667.2817704370383)"><svg viewBox="0 0 396 66" data-background-color="#ffffff" preserveAspectRatio="xMidYMid meet" height="250" width="1500" xmlns="http://www.w3.org/2000/svg" xmlns:xlink="http://www.w3.org/1999/xlink"><g id="tight-bounds" transform="matrix(1,0,0,1,0.2400000000000091,-0.2435810930671778)"><svg viewBox="0 0 395.52 66.48716218613433" height="66.48716218613433" width="395.52"><g><svg viewBox="0 0 559.8832860642166 94.11673454150842" height="66.48716218613433" width="395.52"><g><rect width="6.141493668178926" height="68.44234313619098" x="142.14458384059543" y="12.837195702658718" fill="#010c80" opacity="1" stroke-width="0" stroke="transparent" fill-opacity="1" class="rect-qz-0" data-fill-palette-color="primary" rx="1%" id="qz-0" data-palette-color="#010c80"></rect></g><g transform="matrix(1,0,0,1,164.36328606421657,13.007450287574613)"><svg viewBox="0 0 395.52 68.1018339663592" height="68.1018339663592" width="395.52"><g id="textblocktransform"><svg viewBox="0 0 395.52 68.1018339663592" height="68.1018339663592" width="395.52" id="textblock"><g><svg viewBox="0 0 395.52 68.1018339663592" height="68.1018339663592" width="395.52"><g transform="matrix(1,0,0,1,0,0)"><svg width="395.52" viewBox="3.05 -37.99 269.95 46.49" height="68.1018339663592" data-palette-color="#010c80"><g class="wordmark-text-0" data-fill-palette-color="primary" id="text-0"><path d="M35.89-17.9L35.89-17.9Q35.89-11.04 33.13-6.49 30.37-1.95 25.34-0.34L25.34-0.34 33.84 8.5 27.81 8.5 20.85 0.44 19.51 0.49Q11.62 0.49 7.34-4.33 3.05-9.16 3.05-17.94L3.05-17.94Q3.05-26.66 7.35-31.46 11.65-36.25 19.56-36.25L19.56-36.25Q27.25-36.25 31.57-31.37 35.89-26.49 35.89-17.9ZM7.45-17.9L7.45-17.9Q7.45-10.64 10.53-6.9 13.62-3.15 19.51-3.15L19.51-3.15Q25.44-3.15 28.47-6.88 31.49-10.62 31.49-17.9L31.49-17.9Q31.49-25.1 28.48-28.82 25.46-32.54 19.56-32.54L19.56-32.54Q13.62-32.54 10.53-28.8 7.45-25.05 7.45-17.9ZM42.94-26.76L47.04-26.76 47.04-9.4Q47.04-6.13 48.53-4.52 50.02-2.91 53.2-2.91L53.2-2.91Q57.39-2.91 59.34-5.2 61.28-7.5 61.28-12.7L61.28-12.7 61.28-26.76 65.33-26.76 65.33 0 61.98 0 61.4-3.59 61.18-3.59Q59.93-1.61 57.72-0.56 55.52 0.49 52.68 0.49L52.68 0.49Q47.8 0.49 45.37-1.83 42.94-4.15 42.94-9.25L42.94-9.25 42.94-26.76ZM77.97-26.76L77.97 0 73.92 0 73.92-26.76 77.97-26.76ZM73.58-34.01L73.58-34.01Q73.58-35.4 74.26-36.05 74.95-36.69 75.97-36.69L75.97-36.69Q76.95-36.69 77.66-36.04 78.36-35.38 78.36-34.01L78.36-34.01Q78.36-32.64 77.66-31.97 76.95-31.3 75.97-31.3L75.97-31.3Q74.95-31.3 74.26-31.97 73.58-32.64 73.58-34.01ZM97.26 0.49L97.26 0.49Q91.45 0.49 88.26-3.09 85.08-6.67 85.08-13.21L85.08-13.21Q85.08-19.92 88.31-23.58 91.55-27.25 97.53-27.25L97.53-27.25Q99.46-27.25 101.38-26.83 103.31-26.42 104.41-25.85L104.41-25.85 103.17-22.41Q101.82-22.95 100.24-23.3 98.65-23.66 97.43-23.66L97.43-23.66Q89.27-23.66 89.27-13.26L89.27-13.26Q89.27-8.33 91.26-5.69 93.25-3.05 97.16-3.05L97.16-3.05Q100.51-3.05 104.02-4.49L104.02-4.49 104.02-0.9Q101.34 0.49 97.26 0.49ZM114.17-13.7L114.37-13.7Q115.42-15.19 117.57-17.6L117.57-17.6 126.21-26.76 131.02-26.76 120.18-15.36 131.78 0 126.87 0 117.42-12.65 114.37-10.01 114.37 0 110.37 0 110.37-37.99 114.37-37.99 114.37-17.85Q114.37-16.5 114.17-13.7L114.17-13.7ZM152.92-14.99L152.92-18.7 165.05-18.7 165.05-1.34Q162.22-0.44 159.29 0.02 156.36 0.49 152.5 0.49L152.5 0.49Q144.4 0.49 139.88-4.33 135.36-9.16 135.36-17.85L135.36-17.85Q135.36-23.41 137.6-27.6 139.83-31.79 144.03-34 148.23-36.21 153.87-36.21L153.87-36.21Q159.58-36.21 164.51-34.11L164.51-34.11 162.9-30.44Q158.07-32.5 153.6-32.5L153.6-32.5Q147.08-32.5 143.42-28.61 139.76-24.73 139.76-17.85L139.76-17.85Q139.76-10.62 143.29-6.88 146.81-3.15 153.65-3.15L153.65-3.15Q157.36-3.15 160.9-4L160.9-4 160.9-14.99 152.92-14.99ZM185.21-27.25L185.21-27.25Q187-27.25 188.41-26.95L188.41-26.95 187.85-23.19Q186.19-23.56 184.92-23.56L184.92-23.56Q181.67-23.56 179.37-20.92 177.06-18.29 177.06-14.36L177.06-14.36 177.06 0 173.01 0 173.01-26.76 176.35-26.76 176.82-21.8 177.01-21.8Q178.5-24.41 180.6-25.83 182.7-27.25 185.21-27.25ZM212.87 0L209.87 0 209.06-3.81 208.87-3.81Q206.87-1.29 204.88-0.4 202.89 0.49 199.91 0.49L199.91 0.49Q195.93 0.49 193.67-1.56 191.41-3.61 191.41-7.4L191.41-7.4Q191.41-15.5 204.38-15.89L204.38-15.89 208.92-16.04 208.92-17.7Q208.92-20.85 207.56-22.35 206.21-23.85 203.23-23.85L203.23-23.85Q199.88-23.85 195.66-21.8L195.66-21.8 194.42-24.9Q196.39-25.98 198.75-26.59 201.11-27.2 203.47-27.2L203.47-27.2Q208.26-27.2 210.57-25.07 212.87-22.95 212.87-18.26L212.87-18.26 212.87 0ZM200.71-2.86L200.71-2.86Q204.5-2.86 206.66-4.93 208.82-7.01 208.82-10.74L208.82-10.74 208.82-13.16 204.77-12.99Q199.93-12.82 197.8-11.49 195.66-10.16 195.66-7.35L195.66-7.35Q195.66-5.15 196.99-4 198.32-2.86 200.71-2.86ZM239.97 0L239.43-3.59 239.21-3.59Q236.41 0.49 230.81 0.49L230.81 0.49Q225.57 0.49 222.65-3.1 219.73-6.69 219.73-13.31L219.73-13.31Q219.73-19.92 222.66-23.58 225.59-27.25 230.81-27.25L230.81-27.25Q236.26-27.25 239.16-23.29L239.16-23.29 239.48-23.29 239.31-25.22 239.21-27.1 239.21-37.99 243.27-37.99 243.27 0 239.97 0ZM231.33-2.91L231.33-2.91Q235.48-2.91 237.35-5.16 239.21-7.42 239.21-12.45L239.21-12.45 239.21-13.31Q239.21-18.99 237.32-21.42 235.43-23.85 231.28-23.85L231.28-23.85Q227.71-23.85 225.82-21.08 223.93-18.31 223.93-13.26L223.93-13.26Q223.93-8.13 225.81-5.52 227.69-2.91 231.33-2.91ZM263.16 0.49L263.16 0.49Q257.23 0.49 253.8-3.13 250.37-6.74 250.37-13.16L250.37-13.16Q250.37-19.63 253.55-23.44 256.74-27.25 262.11-27.25L262.11-27.25Q267.14-27.25 270.07-23.94 273-20.63 273-15.21L273-15.21 273-12.65 254.57-12.65Q254.69-7.93 256.95-5.49 259.21-3.05 263.31-3.05L263.31-3.05Q267.63-3.05 271.85-4.86L271.85-4.86 271.85-1.25Q269.7-0.32 267.79 0.09 265.87 0.49 263.16 0.49ZM262.06-23.85L262.06-23.85Q258.84-23.85 256.92-21.75 255.01-19.65 254.67-15.94L254.67-15.94 268.65-15.94Q268.65-19.78 266.95-21.81 265.24-23.85 262.06-23.85Z" fill="#010c80" data-fill-palette-color="primary"></path></g></svg></g></svg></g></svg></g></svg></g><g><svg viewBox="0 0 126.06737528515322 94.11673454150842" height="94.11673454150842" width="126.06737528515322"><g><svg xmlns="http://www.w3.org/2000/svg" xmlns:xlink="http://www.w3.org/1999/xlink" version="1.1" x="0" y="0" viewBox="0.6 13.120970082123728 98.80000000000003 73.76002991787625" enable-background="new 0 0 100 100" xml:space="preserve" height="94.11673454150842" width="126.06737528515322" class="icon-icon-0" data-fill-palette-color="accent" id="icon-0"><g fill="#010c80" data-fill-palette-color="accent"><polygon fill="none" points="9.92,73.01 5.19,71.671 5.19,75.026 9.92,76.257  "></polygon><polygon fill="none" points="30.88,71.639 26.14,70.291 26.14,73.646 30.88,74.877  "></polygon><polygon fill="none" points="87.59,41.714 87.59,44.925 92.85,40.906 92.85,37.733  "></polygon><polygon fill="none" points="94.84,35.055 97.22,33.236 97.22,30.053 94.84,31.856  "></polygon><polygon fill="none" points="79.98,50.046 85.25,51.397 85.25,38.7 79.98,37.239  "></polygon><polygon fill="none" points="20.4,75.819 15.66,74.48 15.66,77.837 20.4,79.058  "></polygon><polygon fill="none" points="9.92,65.868 5.19,64.521 5.19,67.877 9.92,69.106  "></polygon><polygon fill="none" points="20.4,68.669 15.66,67.321 15.66,70.687 20.4,71.908  "></polygon><polygon fill="none" points="30.88,78.719 26.14,77.371 26.14,80.735 30.88,81.947  "></polygon><polygon fill="none" points="45.2,77.859 48.92,78.882 48.92,66.19 45.2,65.159  "></polygon><polygon fill="none" points="37.93,74.914 37.93,78.124 43.19,74.106 43.19,70.933  "></polygon><path fill="none" d="M66.93 58.22l-3.3-0.921v0.041l2.587 0.722c0.045-0.004 0.084 0.014 0.127 0.035l0.587 0.164V58.22z"></path><polygon fill="none" points="51.09,69.344 51.09,72.564 56.35,68.546 56.35,65.363  "></polygon><polygon fill="none" points="67.129,57.756 75.562,51.379 72.333,50.513 63.933,56.864  "></polygon><path fill="none" d="M72.432 56.079c-0.046 0.034-0.099 0.051-0.151 0.051-0.021 0-0.043-0.003-0.065-0.009l-0.999-0.27-3.886 2.938h0c-0.043 0.032-0.095 0.051-0.15 0.051-0.022 0-0.045-0.003-0.067-0.01l-0.845-0.235-2.638 2.047v1.969c0 0.007-0.007 0.01-0.007 0.017-0.002 0.033-0.021 0.057-0.036 0.087-0.015 0.029-0.022 0.058-0.046 0.079-0.005 0.004-0.004 0.012-0.009 0.016L58.5 66.625v1.504l22.871-17.209-1.586-0.407L72.432 56.079z"></path><polygon fill="none" points="72.03,55.236 71.721,55.47 72.03,55.553  "></polygon><polygon fill="none" points="63.63,57.86 63.63,60.01 65.672,58.429  "></polygon><polygon fill="none" points="45.2,64.64 48.92,65.671 48.92,65.16 45.2,64.138  "></polygon><polygon fill="none" points="35.86,85.131 1.1,75.529 1.1,76.699 35.86,86.302  "></polygon><polygon fill="none" points="44.78,78.693 36.36,85.065 36.36,86.128 44.78,79.756  "></polygon><polygon fill="none" points="1.28,61.729 35.77,71.262 35.77,70.75 1.28,61.218  "></polygon><polygon fill="none" points="36.27,71.088 44.7,64.706 44.7,64.312 36.27,70.684  "></polygon><polygon fill="none" points="49,79.54 45.28,78.519 45.28,79.689 49,80.712  "></polygon><path fill="none" d="M85.3 52.999v-0.925l-2.754-0.712c0 0 0 0 0 0 0.006 0.021 0.024 0.035 0.024 0.058v0.339l0.334 0.09c0.023 0.006 0.032 0.028 0.052 0.039 0.025 0.014 0.049 0.021 0.068 0.042 0.004 0.005 0.012 0.004 0.016 0.009 0.003 0.005 0.001 0.01 0.004 0.015 0.015 0.023 0.015 0.048 0.022 0.075 0.006 0.022 0.025 0.037 0.025 0.06v0.346L85.3 52.999z"></path><polygon fill="none" points="94.6,45.352 85.8,52.004 85.8,52.818 94.6,46.166  "></polygon><path fill="none" d="M44.799 63.61c0.005-0.004 0.012-0.001 0.017-0.004 0.022-0.014 0.047-0.014 0.072-0.021 0.022-0.006 0.038-0.026 0.062-0.026 0.007 0 0.01 0.007 0.017 0.007 0.012 0.001 0.021 0.001 0.033 0.004 0.006 0.001 0.011-0.004 0.017-0.002l4.101 1.128 8.579-6.491-5.282-1.464c-0.039-0.011-0.059-0.043-0.087-0.068-0.014-0.012-0.034-0.008-0.046-0.023-0.004-0.005-0.001-0.011-0.004-0.016-0.019-0.028-0.018-0.06-0.024-0.094-0.005-0.031-0.017-0.058-0.011-0.089 0.001-0.006-0.004-0.012-0.002-0.018 0.008-0.027 0.034-0.04 0.049-0.062 0.015-0.024 0.018-0.053 0.042-0.071l27.25-20.61c0.004-0.003 0.01-0.001 0.015-0.004 0.023-0.016 0.049-0.015 0.077-0.022 0.021-0.006 0.036-0.024 0.059-0.024 0.006 0 0.01 0.006 0.017 0.007 0.012 0.001 0.021 0.002 0.032 0.004 0.006 0.001 0.011-0.004 0.017-0.002l5.65 1.557 8.587-6.499-3.73-1.026c-0.028-0.008-0.04-0.033-0.063-0.049-0.023-0.015-0.053-0.018-0.07-0.041-0.004-0.005-0.001-0.012-0.004-0.017-0.019-0.028-0.018-0.06-0.024-0.093-0.005-0.031-0.018-0.059-0.011-0.089 0.001-0.006-0.004-0.012-0.002-0.018 0.008-0.027 0.034-0.04 0.049-0.062 0.015-0.023 0.018-0.053 0.041-0.07l8.056-6.095-34.383-9.502L1.584 60.783l34.383 9.503L44.799 63.61z"></path><polygon fill="none" points="58.33,72.792 49.5,79.474 49.5,80.538 58.33,73.857  "></polygon><polygon fill="none" points="49.42,65.497 58,59.006 58,58.602 49.42,65.094  "></polygon><polygon fill="none" points="98.9,37.734 94.84,40.814 94.84,41.888 98.9,38.826  "></polygon><polygon fill="none" points="79.98,36.72 85.25,38.181 85.25,37.671 79.98,36.219  "></polygon><polygon fill="none" points="91.329,29.445 98.58,23.936 98.58,23.542 90.925,29.333  "></polygon><path fill="none" d="M1.28 74.939l34.49 9.532V71.78L1.28 62.249V74.939zM25.64 69.96c0-0.078 0.037-0.152 0.099-0.199 0.063-0.048 0.145-0.063 0.219-0.041l5.24 1.49c0.107 0.03 0.182 0.129 0.182 0.24v3.75c0 0.077-0.036 0.15-0.097 0.197-0.044 0.035-0.098 0.053-0.153 0.053-0.021 0-0.042-0.003-0.063-0.008l-5.24-1.36c-0.11-0.029-0.187-0.128-0.187-0.242V69.96zM25.64 77.04c0-0.078 0.037-0.152 0.099-0.199 0.063-0.047 0.145-0.064 0.219-0.041l5.24 1.49c0.107 0.03 0.182 0.129 0.182 0.24v3.739c0 0.077-0.036 0.15-0.097 0.197-0.044 0.034-0.098 0.053-0.153 0.053-0.021 0-0.042-0.003-0.062-0.008l-5.24-1.34c-0.11-0.028-0.188-0.128-0.188-0.242V77.04zM15.16 66.99c0-0.078 0.037-0.152 0.099-0.199 0.063-0.048 0.144-0.063 0.219-0.041l5.24 1.49c0.107 0.03 0.182 0.129 0.182 0.24v3.75c0 0.077-0.036 0.15-0.097 0.197-0.044 0.034-0.099 0.053-0.153 0.053-0.021 0-0.042-0.003-0.062-0.008l-5.24-1.351c-0.11-0.028-0.188-0.128-0.188-0.242V66.99zM15.16 74.15c0-0.078 0.037-0.152 0.099-0.199 0.063-0.048 0.144-0.063 0.219-0.041l5.24 1.479c0.108 0.03 0.182 0.128 0.182 0.24v3.75c0 0.077-0.036 0.15-0.097 0.197-0.044 0.034-0.099 0.053-0.153 0.053-0.021 0-0.042-0.003-0.062-0.008l-5.24-1.35c-0.11-0.028-0.188-0.128-0.188-0.242V74.15zM4.69 64.19c0-0.078 0.037-0.152 0.099-0.199s0.144-0.064 0.219-0.041l5.23 1.489c0.107 0.03 0.182 0.129 0.182 0.24v3.75c0 0.077-0.036 0.15-0.097 0.198-0.044 0.034-0.098 0.052-0.153 0.052-0.021 0-0.042-0.003-0.063-0.008l-5.23-1.359c-0.11-0.029-0.187-0.128-0.187-0.242V64.19zM4.789 71.141c0.062-0.048 0.146-0.063 0.219-0.041l5.23 1.48c0.108 0.03 0.182 0.128 0.182 0.24v3.76c0 0.077-0.036 0.15-0.097 0.198-0.044 0.034-0.098 0.052-0.153 0.052-0.021 0-0.042-0.003-0.063-0.008l-5.23-1.36c-0.11-0.029-0.187-0.128-0.187-0.242v-3.88C4.69 71.262 4.727 71.188 4.789 71.141z"></path><polygon fill="none" points="85.75,38.007 94.34,31.506 94.34,31.102 85.75,37.604  "></polygon><polygon fill="none" points="53.438,56.506 79.48,36.786 79.48,36.392 53.034,56.394  "></polygon><path d="M99.4 37.23c0-0.023-0.019-0.038-0.025-0.06-0.007-0.026-0.007-0.051-0.022-0.074-0.003-0.005-0.001-0.012-0.004-0.017-0.004-0.005-0.011-0.004-0.016-0.009-0.018-0.021-0.042-0.027-0.066-0.041-0.019-0.011-0.028-0.033-0.05-0.04l-0.138-0.039V23.04c0-0.007-0.007-0.011-0.007-0.018-0.001-0.01 0.004-0.019 0.003-0.029-0.009-0.049-0.034-0.092-0.067-0.126-0.005-0.005-0.011-0.005-0.016-0.01-0.028-0.025-0.058-0.048-0.095-0.058l-34.99-9.67c-0.072-0.019-0.153-0.004-0.217 0.042L0.879 60.69c-0.006 0.005-0.008 0.012-0.013 0.017-0.011 0.01-0.015 0.021-0.024 0.032-0.029 0.037-0.046 0.077-0.051 0.123C0.79 60.873 0.78 60.879 0.78 60.89v14.048l-0.084 0.066c-0.005 0.004-0.004 0.011-0.008 0.015-0.02 0.018-0.025 0.042-0.039 0.065-0.011 0.019-0.034 0.028-0.04 0.051-0.002 0.007 0.004 0.013 0.002 0.02-0.002 0.011-0.004 0.02-0.005 0.032 0 0.006-0.006 0.009-0.006 0.015v1.689c0 0.023 0.019 0.038 0.024 0.059 0.009 0.032 0.015 0.059 0.036 0.086 0.02 0.026 0.044 0.04 0.072 0.056 0.019 0.011 0.029 0.034 0.051 0.04l35.26 9.74c0.022 0.006 0.044 0.009 0.066 0.009 0.054 0 0.107-0.018 0.151-0.051l8.821-6.675 4.102 1.127c0.022 0.006 0.044 0.009 0.066 0.009 0.054 0 0.107-0.018 0.151-0.051l9.33-7.06c0.005-0.004 0.004-0.011 0.009-0.015 0.025-0.022 0.033-0.052 0.048-0.083 0.014-0.029 0.033-0.052 0.035-0.084 0.001-0.007 0.007-0.01 0.007-0.017v-1.69c0-0.022-0.018-0.036-0.024-0.057-0.007-0.027-0.007-0.051-0.022-0.074-0.004-0.006-0.001-0.014-0.005-0.019-0.004-0.005-0.011-0.004-0.015-0.009-0.018-0.02-0.041-0.027-0.064-0.041-0.018-0.011-0.026-0.033-0.048-0.039L58.5 72.005v-0.651l24.394-18.453 2.594 0.661c0.021 0.005 0.041 0.008 0.062 0.008 0.054 0 0.106-0.018 0.15-0.051l9.3-7.03c0.005-0.004 0.004-0.011 0.009-0.015 0.025-0.022 0.034-0.052 0.049-0.083 0.014-0.029 0.033-0.052 0.035-0.084 0.001-0.007 0.007-0.01 0.007-0.017v-1.44c0-0.022-0.018-0.036-0.023-0.056-0.007-0.027-0.007-0.052-0.022-0.075-0.004-0.006-0.001-0.014-0.005-0.021-0.004-0.005-0.011-0.004-0.016-0.009-0.017-0.02-0.041-0.026-0.064-0.04-0.018-0.011-0.026-0.032-0.047-0.038l-0.083-0.026v-2.071l4.461-3.365c0.005-0.004 0.004-0.011 0.009-0.016 0.025-0.021 0.032-0.051 0.047-0.08 0.015-0.03 0.034-0.054 0.036-0.087 0-0.006 0.007-0.01 0.007-0.017V37.23zM37.93 78.124v-3.21l5.26-3.981v3.174L37.93 78.124zM51.09 72.564v-3.221l5.26-3.98v3.183L51.09 72.564zM66.343 58.097c-0.042-0.021-0.082-0.039-0.127-0.035L63.63 57.34V57.3l3.3 0.921v0.041L66.343 58.097zM72.333 50.513l3.229 0.865-8.434 6.377-3.195-0.892L72.333 50.513zM63.63 57.86l2.042 0.569L63.63 60.01V57.86zM72.03 55.236v0.318l-0.31-0.084L72.03 55.236zM58.5 68.128v-1.504l5.031-3.815c0.005-0.004 0.004-0.012 0.009-0.016 0.024-0.021 0.031-0.051 0.046-0.079 0.015-0.03 0.034-0.054 0.036-0.087 0-0.006 0.007-0.01 0.007-0.017v-1.969l2.638-2.047 0.845 0.235c0.022 0.007 0.045 0.01 0.067 0.01 0.055 0 0.108-0.019 0.15-0.051h0l3.886-2.938 0.999 0.27c0.022 0.006 0.044 0.009 0.065 0.009 0.053 0 0.105-0.017 0.151-0.051l7.354-5.567 1.586 0.407L58.5 68.128zM87.59 44.925v-3.21l5.26-3.981v3.173L87.59 44.925zM97.22 33.236l-2.38 1.818v-3.198l2.38-1.803V33.236zM85.25 51.397l-5.27-1.351V37.239l5.27 1.461V51.397zM48.92 78.882l-3.72-1.023v-12.7l3.72 1.031V78.882zM35.77 84.472L1.28 74.939V62.249l34.49 9.532V84.472zM98.58 23.936l-7.251 5.509-0.404-0.111 7.655-5.791V23.936zM94.34 31.506l-8.59 6.501v-0.403l8.59-6.501V31.506zM85.25 38.181l-5.27-1.461v-0.502l5.27 1.452V38.181zM79.48 36.786l-26.042 19.72-0.404-0.112L79.48 36.392V36.786zM58 59.006l-8.58 6.491v-0.403L58 58.602V59.006zM48.92 65.671L45.2 64.64v-0.502l3.72 1.023V65.671zM44.7 64.706l-8.43 6.382v-0.404l8.43-6.372V64.706zM35.77 71.262L1.28 61.729v-0.511l34.49 9.532V71.262zM1.1 75.529l34.76 9.602v1.171L1.1 76.699V75.529zM36.36 85.065l8.42-6.372v1.063l-8.42 6.372V85.065zM45.28 78.519L49 79.54v1.172l-3.72-1.023V78.519zM49.5 79.474l8.83-6.682v1.064l-8.83 6.681V79.474zM83.065 52.03c-0.007-0.027-0.006-0.052-0.022-0.075-0.003-0.005-0.001-0.011-0.004-0.015-0.004-0.005-0.011-0.004-0.016-0.009-0.018-0.021-0.043-0.028-0.068-0.042-0.019-0.011-0.029-0.033-0.052-0.039l-0.334-0.09V51.42c0-0.023-0.018-0.037-0.024-0.058 0 0 0 0 0 0l2.754 0.712v0.925l-2.21-0.563V52.09C83.09 52.066 83.071 52.051 83.065 52.03zM85.8 52.004l8.8-6.652v0.814l-8.8 6.652V52.004zM63.893 13.644l34.383 9.502-8.056 6.095c-0.024 0.018-0.026 0.047-0.041 0.07-0.016 0.022-0.042 0.035-0.049 0.062-0.002 0.006 0.003 0.012 0.002 0.018-0.006 0.031 0.006 0.058 0.011 0.089 0.006 0.033 0.006 0.065 0.024 0.093 0.003 0.005 0.001 0.012 0.004 0.017 0.018 0.024 0.047 0.026 0.07 0.041 0.022 0.015 0.035 0.041 0.063 0.049l3.73 1.026-8.587 6.499-5.65-1.557c-0.006-0.002-0.011 0.003-0.017 0.002-0.012-0.002-0.021-0.003-0.032-0.004-0.006 0-0.01-0.007-0.017-0.007-0.023 0-0.038 0.019-0.059 0.024-0.027 0.007-0.054 0.007-0.077 0.022-0.004 0.003-0.01 0.001-0.015 0.004l-27.25 20.61c-0.024 0.018-0.026 0.048-0.042 0.071-0.015 0.022-0.041 0.034-0.049 0.062-0.002 0.006 0.003 0.012 0.002 0.018-0.006 0.031 0.006 0.058 0.011 0.089 0.006 0.034 0.006 0.066 0.024 0.094 0.003 0.005 0.001 0.011 0.004 0.016 0.011 0.015 0.032 0.011 0.046 0.023 0.028 0.025 0.049 0.057 0.087 0.068l5.282 1.464-8.579 6.491-4.101-1.128c-0.006-0.001-0.011 0.003-0.017 0.002-0.012-0.002-0.021-0.003-0.033-0.004-0.006 0-0.01-0.007-0.017-0.007-0.024 0-0.04 0.019-0.062 0.026-0.025 0.007-0.05 0.006-0.072 0.021-0.005 0.003-0.012 0.001-0.017 0.004l-8.832 6.676L1.584 60.783 63.893 13.644zM94.84 40.814l4.061-3.081v1.092l-4.061 3.063V40.814z" fill="#010c80" data-fill-palette-color="accent"></path><path d="M4.877 75.462l5.23 1.36c0.021 0.005 0.042 0.008 0.063 0.008 0.055 0 0.109-0.018 0.153-0.052 0.062-0.048 0.097-0.121 0.097-0.198v-3.76c0-0.112-0.074-0.21-0.182-0.24l-5.23-1.48c-0.073-0.022-0.156-0.007-0.219 0.041C4.727 71.188 4.69 71.262 4.69 71.34v3.88C4.69 75.334 4.767 75.433 4.877 75.462zM5.19 71.671l4.73 1.339v3.247l-4.73-1.23V71.671z" fill="#010c80" data-fill-palette-color="accent"></path><path d="M15.348 78.272l5.24 1.35c0.021 0.005 0.042 0.008 0.062 0.008 0.055 0 0.109-0.019 0.153-0.053 0.061-0.047 0.097-0.12 0.097-0.197v-3.75c0-0.112-0.074-0.21-0.182-0.24l-5.24-1.479c-0.075-0.022-0.156-0.007-0.219 0.041-0.062 0.047-0.099 0.121-0.099 0.199v3.88C15.16 78.145 15.237 78.244 15.348 78.272zM15.66 74.48l4.74 1.339v3.238l-4.74-1.221V74.48z" fill="#010c80" data-fill-palette-color="accent"></path><path d="M25.828 81.172l5.24 1.34c0.021 0.005 0.042 0.008 0.062 0.008 0.055 0 0.109-0.019 0.153-0.053 0.061-0.047 0.097-0.12 0.097-0.197V78.53c0-0.111-0.074-0.21-0.182-0.24l-5.24-1.49c-0.075-0.023-0.156-0.006-0.219 0.041-0.062 0.047-0.099 0.121-0.099 0.199v3.89C25.64 81.044 25.718 81.144 25.828 81.172zM26.14 77.371l4.74 1.348v3.229l-4.74-1.212V77.371z" fill="#010c80" data-fill-palette-color="accent"></path><path d="M4.877 68.312l5.23 1.359c0.021 0.005 0.042 0.008 0.063 0.008 0.055 0 0.109-0.018 0.153-0.052 0.062-0.048 0.097-0.121 0.097-0.198v-3.75c0-0.111-0.074-0.21-0.182-0.24l-5.23-1.489c-0.075-0.023-0.157-0.006-0.219 0.041S4.69 64.112 4.69 64.19v3.88C4.69 68.185 4.767 68.283 4.877 68.312zM5.19 64.521l4.73 1.347v3.238l-4.73-1.229V64.521z" fill="#010c80" data-fill-palette-color="accent"></path><path d="M15.348 71.122l5.24 1.351c0.021 0.005 0.042 0.008 0.062 0.008 0.055 0 0.109-0.019 0.153-0.053 0.061-0.047 0.097-0.12 0.097-0.197v-3.75c0-0.111-0.074-0.21-0.182-0.24l-5.24-1.49c-0.076-0.022-0.156-0.007-0.219 0.041-0.062 0.047-0.099 0.121-0.099 0.199v3.89C15.16 70.994 15.237 71.094 15.348 71.122zM15.66 67.321l4.74 1.348v3.239l-4.74-1.222V67.321z" fill="#010c80" data-fill-palette-color="accent"></path><path d="M25.827 74.082l5.24 1.36c0.021 0.005 0.042 0.008 0.063 0.008 0.055 0 0.109-0.018 0.153-0.053 0.062-0.047 0.097-0.12 0.097-0.197v-3.75c0-0.111-0.074-0.21-0.182-0.24l-5.24-1.49c-0.075-0.022-0.156-0.007-0.219 0.041-0.062 0.047-0.099 0.121-0.099 0.199v3.88C25.64 73.954 25.717 74.053 25.827 74.082zM26.14 70.291l4.74 1.348v3.238l-4.74-1.23V70.291z" fill="#010c80" data-fill-palette-color="accent"></path></g></svg></g></svg></g></svg></g><defs></defs></svg><rect width="395.52" height="66.48716218613433" fill="none" stroke="none" visibility="hidden"></rect></g></svg></g></svg>